<svg width="940" height="800" viewBox="0 0 940 800" fill="none" xmlns="http://www.w3.org/2000/svg">
<path d="M55.5308 269.908C36.6308 277.817 15.8483 300.136 9.28873 328.21C0.966349 363.749 35.5666 378.757 38.3936 373.861C41.7201 368.053 32.1738 366.104 30.2244 347.676C27.7162 323.847 38.7663 297.223 52.7103 285.541C55.3113 283.405 55.185 286.419 55.185 291.974C55.185 301.993 54.6262 391.63 54.6262 410.343C54.6262 435.676 53.5884 443.653 51.6725 451.529C49.7895 459.539 46.7429 464.941 49.0381 467.043C51.6391 469.365 62.6892 463.837 69.0956 454.896C76.7594 444.185 79.4601 431.312 79.9591 417.342C80.5244 400.517 80.4915 373.767 80.5244 358.54C80.5244 344.536 80.7439 303.596 80.3049 278.948C80.1786 272.921 63.4141 266.608 55.5308 269.908ZM926.906 402.9C924.204 402.9 922.921 405.727 921.883 410.47C918.304 427.015 914.538 430.747 909.669 430.747C904.24 430.747 899.371 422.558 898.087 406.166C897.115 393.293 897.268 369.557 898.526 345.947C898.779 341.11 897.455 336.314 884.456 331.571C878.84 329.561 870.705 326.548 866.66 336.341C855.198 363.942 850.74 385.916 849.669 394.803C849.644 395.269 849.077 395.336 848.977 394.271C848.325 387.14 846.815 374.173 846.629 346.918C846.562 341.649 845.465 337.092 839.564 333.387C835.765 331.005 824.21 326.734 820.032 331.79C816.453 335.934 812.281 347.051 807.918 360.236C804.398 370.974 801.95 378.258 801.95 378.258C801.95 378.258 801.975 349.306 802.044 338.316C802.044 334.172 799.216 332.795 798.371 332.542C794.506 331.411 786.876 329.561 783.676 329.561C779.691 329.561 778.746 331.79 778.746 335.023C778.746 335.429 778.088 373.103 778.088 399.447V403.152C775.919 415.273 768.768 431.725 761.01 431.725C753.253 431.725 749.581 424.846 749.581 393.453C749.581 375.145 750.147 367.175 750.399 353.923C750.553 346.293 750.865 340.425 750.838 339.075C750.772 335.023 743.707 332.948 740.44 332.196C737.147 331.411 734.287 331.158 732.032 331.251C728.892 331.444 726.663 333.513 726.663 336.407V340.798C722.612 334.398 716.046 329.934 711.655 328.65C699.913 325.164 687.632 328.271 678.372 341.203C671.028 351.508 666.597 363.15 664.874 379.888C663.583 392.135 663.996 404.536 666.285 415.021C663.523 426.855 658.434 431.725 652.879 431.725C644.777 431.725 638.942 418.533 639.601 395.708C640.074 380.707 643.054 370.189 646.347 354.928C647.764 348.428 646.6 345.042 643.745 341.742C641.138 338.788 635.55 337.252 627.547 339.101C621.859 340.452 613.669 341.895 606.225 342.999C606.225 342.999 606.664 341.203 607.043 338.037C608.959 321.425 590.904 322.776 585.156 328.085C581.704 331.251 579.349 334.99 578.471 341.709C577.06 352.387 585.755 357.409 585.755 357.409C582.901 370.468 575.929 387.545 568.678 399.886C564.812 406.512 561.859 411.382 558.034 416.591C557.999 414.675 557.999 412.725 557.999 410.816C557.932 383.341 558.278 361.713 558.438 353.923C558.598 346.293 558.91 340.578 558.91 339.227C558.844 336.274 557.121 335.116 553.475 333.733C550.275 332.482 546.477 331.571 542.552 331.251C537.622 330.879 534.608 333.513 534.702 336.62V340.798C530.623 334.398 524.057 329.934 519.726 328.65C507.951 325.164 495.677 328.271 486.417 341.203C479.099 351.508 474.263 365.918 472.879 379.729C471.628 392.668 471.848 403.591 473.604 412.825C471.722 422.052 466.353 431.725 460.266 431.725C452.509 431.725 448.078 424.846 448.078 393.453C448.078 375.145 448.644 367.175 448.93 353.923C449.083 346.293 449.369 340.425 449.335 339.075C449.302 335.023 442.244 332.948 438.944 332.196C435.525 331.384 432.538 331.132 430.276 331.251C427.262 331.504 425.16 334.172 425.16 336.214V340.798C421.082 334.398 414.516 329.934 410.152 328.65C398.41 325.164 386.229 328.338 376.902 341.203C370.815 349.593 365.886 358.913 363.345 379.576C362.653 385.543 362.307 391.125 362.34 396.34C359.918 411.155 349.214 428.239 340.486 428.239C335.337 428.239 330.441 418.314 330.441 397.125C330.441 368.932 332.197 328.743 332.51 324.851C332.51 324.851 343.559 324.658 345.728 324.632C351.223 324.598 356.246 324.725 363.564 324.346C367.269 324.16 370.815 310.941 366.983 309.278C365.287 308.552 353.106 307.894 348.269 307.801C344.192 307.708 332.915 306.863 332.915 306.863C332.915 306.863 333.927 280.206 334.146 277.412C334.332 275.023 331.319 273.833 329.563 273.107C325.318 271.291 321.52 270.44 317.063 269.529C310.816 268.245 308.022 269.502 307.489 274.738C306.671 282.687 306.232 305.985 306.232 305.985C301.648 305.985 286.108 305.067 281.551 305.067C277.32 305.067 272.729 323.281 278.604 323.501C285.356 323.754 297.065 324.007 304.848 324.219C304.848 324.219 304.502 365.073 304.502 377.66V381.551C300.205 403.871 285.163 415.932 285.163 415.932C288.396 401.143 281.804 390.06 269.875 380.707C265.478 377.221 256.817 370.654 247.111 363.53C247.111 363.53 252.732 357.975 257.721 346.858C261.241 338.975 261.4 329.907 252.732 327.925C238.416 324.632 226.641 335.15 223.095 346.386C220.394 355.054 221.811 361.52 227.173 368.206L228.397 369.716C225.197 375.93 220.739 384.312 217.001 390.812C206.55 408.867 198.666 423.123 192.732 423.123C187.962 423.123 188.022 408.647 188.022 395.083C188.022 383.401 188.9 365.791 189.592 347.583C189.812 341.582 186.798 338.13 181.749 335.023C178.669 333.14 172.136 329.435 168.337 329.435C162.689 329.435 146.297 330.187 130.823 374.925C128.874 380.58 125.042 390.845 125.042 390.845L125.388 337.032C125.388 335.775 124.73 334.584 123.193 333.733C120.585 332.322 113.586 329.435 107.433 329.435C104.446 329.435 102.969 330.819 102.969 333.547L102.47 417.688C102.47 424.095 102.623 431.565 103.255 434.832C103.88 438.098 104.918 440.766 106.176 442.363C107.433 443.906 108.903 445.097 111.291 445.629C113.52 446.101 125.794 447.638 126.426 442.961C127.211 437.34 127.237 431.286 133.677 408.588C143.723 373.295 156.788 356.092 162.942 349.965C164.04 348.901 165.264 348.834 165.197 350.597C164.918 358.347 164.007 377.66 163.381 394.078C161.718 438.065 169.688 446.194 181.15 446.194C189.878 446.194 202.186 437.499 215.404 415.526C223.66 401.802 231.636 388.397 237.411 378.697C241.369 382.396 245.886 386.388 250.377 390.659C260.835 400.545 264.254 409.965 261.966 418.886C260.236 425.724 253.677 432.756 242.028 425.917C238.635 423.935 237.192 422.398 233.772 420.136C231.949 418.912 229.122 418.566 227.459 419.824C223.062 423.123 220.58 427.295 219.136 432.477C217.786 437.533 222.842 440.167 228.084 442.489C232.574 444.532 242.247 446.321 248.428 446.54C272.51 447.359 291.789 434.925 305.194 402.9C307.616 430.561 317.814 446.228 335.556 446.228C347.451 446.228 359.353 430.873 364.568 415.772C366.039 421.926 368.267 427.261 371.128 431.818C384.819 453.479 411.376 448.835 424.688 430.434C428.832 424.72 429.465 422.678 429.465 422.678C431.407 440.048 445.411 446.161 453.42 446.161C462.428 446.161 471.662 441.897 478.154 427.261C478.94 428.865 479.758 430.374 480.703 431.818C494.36 453.479 520.917 448.835 534.263 430.434C534.861 429.523 535.427 428.771 535.892 428.046L536.305 439.475C536.305 439.475 528.674 446.447 523.998 450.745C503.434 469.618 487.795 483.935 486.637 500.573C485.193 521.828 502.397 529.711 515.456 530.742C529.273 531.847 541.142 524.216 548.419 513.478C554.826 504.058 559.037 483.808 558.724 463.777C558.598 455.741 558.405 445.569 558.218 434.612C565.47 426.263 573.633 415.646 581.11 403.219C589.3 389.714 598.028 371.533 602.485 357.376C602.485 357.376 610.116 357.442 618.218 356.937C620.826 356.777 621.578 357.316 621.072 359.199C620.507 361.487 610.84 398.821 619.662 423.689C625.722 440.7 639.314 446.194 647.416 446.194C656.863 446.194 665.91 439.036 670.74 428.426C671.339 429.59 671.938 430.747 672.63 431.818C686.287 453.479 712.751 448.802 726.19 430.434C729.236 426.263 730.933 422.678 730.933 422.678C733.82 440.673 747.824 446.228 755.827 446.228C764.209 446.228 772.119 442.808 778.559 427.607C778.812 434.3 779.217 439.762 779.909 441.484C780.315 442.556 782.703 443.873 784.399 444.531C792.057 447.359 799.847 446.008 802.701 445.41C804.71 445.004 806.28 443.434 806.473 439.289C807.032 428.426 806.686 410.184 809.985 396.593C815.54 373.861 820.69 365.04 823.137 360.676C824.495 358.221 826.058 357.815 826.091 360.39C826.185 365.632 826.47 381.019 828.633 401.742C830.176 416.936 832.278 425.944 833.908 428.805C838.492 436.934 844.206 437.313 848.823 437.313C851.777 437.313 857.931 436.495 857.392 431.312C857.112 428.805 857.585 413.198 863.013 390.785C866.592 376.123 872.526 362.904 874.662 358.068C875.48 356.278 875.826 357.662 875.826 357.941C875.353 368.02 874.349 401.017 878.427 419.038C884.022 443.5 900.121 446.228 905.742 446.228C917.704 446.228 927.536 437.12 930.829 413.138C931.648 407.357 930.451 402.9 926.906 402.9ZM424.907 388.084C424.249 400.764 421.767 411.381 417.815 419.071C410.59 433.042 396.374 437.439 390.121 417.315C385.57 402.779 387.107 382.934 389.023 372.224C391.784 356.338 398.789 345.102 409.712 346.132C420.889 347.237 426.351 361.647 424.907 388.084ZM534.45 388.27C533.824 400.231 530.718 412.286 527.325 419.071C520.326 433.135 505.691 437.532 499.63 417.315C495.492 403.464 496.463 385.602 498.532 374.36C501.207 359.731 507.639 346.132 519.228 346.132C530.498 346.132 536.053 358.506 534.45 388.27ZM537.31 470.024C537.151 491.911 533.731 511.063 526.38 516.651C515.896 524.562 501.799 518.594 504.719 502.648C507.294 488.518 519.508 474.108 537.344 456.492C537.344 456.492 537.405 460.51 537.31 470.024ZM726.443 388.396C725.811 401.555 722.891 411.82 719.285 419.071C712.28 433.135 697.777 437.499 691.59 417.315C688.231 406.292 688.071 387.891 690.492 372.543C692.941 356.903 699.82 345.102 711.182 346.132C722.418 347.204 727.667 361.647 726.443 388.396Z" fill="#231E1F"/>
</svg>
